<svg width="313" height="42" viewBox="0 0 313 42" fill="none" xmlns="http://www.w3.org/2000/svg">
<path d="M12.96 38.808C14.976 38.808 16.656 38.424 17.856 37.704C19.584 36.696 20.016 34.392 18.624 33.144C18.576 33.144 16.8 35.112 12.96 35.112C10.08 35.112 7.776 33.672 6.144 30.792C4.56 28.008 3.696 24.168 3.696 19.992C3.696 12.216 6.816 4.152 12 4.152C15.456 4.152 17.088 7.416 17.088 9.576C17.088 10.824 16.896 12.408 15.984 13.032C14.688 13.8 12.576 13.512 11.472 12.552L11.28 12.984C10.416 14.664 11.472 16.68 13.344 16.92C14.784 17.112 16.464 17.064 17.904 16.152C19.824 14.952 20.784 12.744 20.784 9.576C20.784 5.208 17.424 0.455998 12 0.455998C8.304 0.455998 5.04 2.76 2.832 6.984C1.056 10.488 0 15.192 0 19.992C0 24.84 1.056 29.304 2.928 32.616C5.28 36.648 8.736 38.808 12.96 38.808ZM31.1678 33.528C35.4398 33.528 38.9438 30.024 38.9438 25.752V12.552C38.9438 8.232 35.4398 4.728 31.1678 4.728C26.8478 4.728 23.3438 8.232 23.3438 12.552V25.752C23.3438 30.024 26.8478 33.528 31.1678 33.528ZM31.1678 8.424C33.4238 8.424 35.2958 10.248 35.2958 12.552V25.752C35.2958 28.008 33.4238 29.88 31.1678 29.88C28.8638 29.88 27.0398 28.008 27.0398 25.752V12.552C27.0398 10.248 28.8638 8.424 31.1678 8.424ZM53.3213 5.352V18.408C52.2173 16.488 50.9693 14.904 49.8173 13.416C47.6573 10.632 45.9773 8.472 45.9773 5.352H42.2812V33H45.9773V14.472C46.2653 14.856 46.6013 15.288 46.8893 15.672C49.9133 19.56 53.3213 23.928 53.3213 32.952V33H57.0173V5.352H53.3213ZM71.847 5.352V18.264C69.207 17.592 66.615 17.544 64.071 18.264V5.352H60.375V33H64.071V21.96C66.615 21.048 69.207 21.048 71.847 21.96V33H75.543V5.352H71.847ZM92.9546 9.096L92.1386 5.448H78.8906V32.952V33H92.1386L92.9546 29.352H82.5866V19.896C84.1226 18.984 86.3306 18.552 88.2986 19.992L90.0266 16.2C87.9626 14.808 84.6986 14.568 82.5866 15.864V9.096H92.9546ZM104.344 33.576C107.128 33.576 109.72 32.136 111.16 29.64L107.992 27.768C107.032 29.4 105.112 30.216 103.288 29.736C101.224 29.16 100.024 27.144 100.024 24.12V13.992C100.024 13.944 100.024 13.896 100.024 13.896C100.024 13.8 100.024 13.752 100.024 13.656C100.024 11.064 101.128 9.144 103.048 8.568C104.728 8.04 106.6 8.808 107.8 10.584L110.824 8.52C108.76 5.4 105.256 4.056 101.944 5.064C99.2561 5.88 96.3281 8.568 96.3281 13.656C96.3281 13.704 96.3281 13.752 96.3281 13.752C96.3281 13.848 96.3281 13.896 96.3281 13.992V24.12C96.3281 29.688 99.4001 32.472 102.328 33.288C103 33.48 103.672 33.576 104.344 33.576ZM103.528 32.856L103.288 36.504L104.44 36.696C104.728 36.744 104.968 36.84 105.16 37.032C105.352 37.272 105.496 37.512 105.496 37.8C105.496 38.232 105.304 38.568 105.016 38.808C104.68 39.048 102.952 39.096 102.28 39.096L103.528 41.16C104.92 41.208 105.928 40.872 106.552 40.2C107.224 39.528 107.56 38.712 107.56 37.704C107.56 36.984 107.368 36.408 106.984 35.88C106.6 35.4 105.688 35.016 105.112 34.824L105.496 32.856H103.528ZM131.228 33L124.076 5.352H121.34L114.188 33H117.884L119.324 27.336C121.148 27.096 123.644 27.24 126.428 28.728L127.532 33H131.228ZM120.332 23.544L122.732 14.28L125.276 24.264C123.452 23.688 121.772 23.496 120.332 23.544ZM161.087 33L153.935 5.352H151.199L144.047 33H147.743L149.183 27.336C151.007 27.096 153.503 27.24 156.287 28.728L157.391 33H161.087ZM150.191 23.544L152.591 14.28L155.135 24.264C153.311 23.688 151.631 23.496 150.191 23.544ZM199.394 26.28C199.058 22.44 197.426 18.984 194.93 16.44C196.082 14.904 196.85 12.936 196.85 10.392C196.85 4.056 192.29 0.215999 184.706 0.215999C179.714 0.215999 175.874 2.808 174.434 7.128C173.378 10.392 173.906 13.896 175.73 16.68C176.882 18.504 179.474 18.6 180.77 16.872L180.818 16.824C178.13 14.808 176.978 11.352 177.938 8.328C178.898 5.544 181.346 3.912 184.706 3.912C190.322 3.912 193.154 6.12 193.154 10.392C193.154 14.328 190.466 16.008 187.394 17.976C186.914 18.264 186.482 18.552 186.002 18.888V5.64H182.306V35.352C181.442 35.352 180.578 35.304 179.906 34.632C179.474 35.304 179.09 38.952 183.026 38.904C183.074 38.904 183.074 38.904 183.074 38.904C183.938 38.952 184.706 38.952 185.474 38.952C186.29 38.952 187.058 38.904 187.778 38.904C192.146 38.664 195.218 37.512 197.138 35.256C199.01 33.144 199.73 30.216 199.394 26.28ZM194.402 32.856C193.106 34.296 190.898 35.064 187.586 35.208C187.106 35.256 186.578 35.256 186.002 35.256V23.544C186.866 22.68 188.114 21.864 189.362 21.096C190.322 20.472 191.378 19.8 192.338 19.08C194.21 20.952 195.458 23.688 195.698 26.616C195.986 29.496 195.554 31.512 194.402 32.856ZM218.134 33L210.982 5.352H208.246L201.094 33H204.79L206.23 27.336C208.054 27.096 210.55 27.24 213.334 28.728L214.438 33H218.134ZM207.238 23.544L209.638 14.28L212.182 24.264C210.358 23.688 208.678 23.496 207.238 23.544ZM227.609 33.528C227.753 33.528 227.897 33.528 227.993 33.528C230.729 33.384 233.081 31.656 234.137 29.016C235.241 26.28 234.617 23.16 232.505 20.904C232.217 20.568 231.401 19.896 229.913 18.552C228.329 17.112 225.353 14.52 224.921 13.944C224.201 12.984 224.105 11.592 224.633 10.392C224.921 9.816 225.689 8.52 227.417 8.424C227.513 8.424 227.561 8.424 227.609 8.424C228.905 8.424 230.249 9.24 230.825 10.392L234.137 8.808C232.984 6.36 230.393 4.728 227.609 4.728C227.465 4.728 227.368 4.728 227.225 4.728C224.633 4.872 222.425 6.408 221.273 8.856C220.168 11.352 220.457 14.136 222.041 16.2C222.617 16.968 224.633 18.792 227.465 21.288C228.473 22.2 229.625 23.208 229.817 23.448C230.969 24.648 231.305 26.232 230.729 27.672C230.297 28.68 229.337 29.784 227.801 29.88C227.753 29.88 227.705 29.88 227.609 29.88C225.785 29.88 224.489 28.776 223.817 26.664L220.312 27.768C221.417 31.416 224.153 33.528 227.609 33.528ZM241.727 33V5.352H238.031V33H241.727ZM248.805 29.352V5.352H245.109V33H257.493L258.357 29.352H248.805ZM275.72 9.096L274.904 5.448H261.656V32.952V33H274.904L275.72 29.352H265.352V19.896C266.888 18.984 269.096 18.552 271.064 19.992L272.792 16.2C270.728 14.808 267.464 14.568 265.352 15.864V9.096H275.72ZM286.918 33.528C291.19 33.528 294.694 30.024 294.694 25.752V5.352H291.046V25.752C291.046 28.008 289.174 29.88 286.918 29.88C284.614 29.88 282.79 28.008 282.79 25.752V5.352H279.094V25.752C279.094 30.024 282.598 33.528 286.918 33.528ZM304.624 33.528C304.768 33.528 304.912 33.528 305.008 33.528C307.744 33.384 310.096 31.656 311.152 29.016C312.256 26.28 311.632 23.16 309.52 20.904C309.232 20.568 308.416 19.896 306.928 18.552C305.344 17.112 302.368 14.52 301.936 13.944C301.216 12.984 301.12 11.592 301.648 10.392C301.936 9.816 302.704 8.52 304.432 8.424C304.528 8.424 304.576 8.424 304.624 8.424C305.92 8.424 307.264 9.24 307.84 10.392L311.152 8.808C310 6.36 307.408 4.728 304.624 4.728C304.48 4.728 304.384 4.728 304.24 4.728C301.648 4.872 299.44 6.408 298.288 8.856C297.184 11.352 297.472 14.136 299.056 16.2C299.632 16.968 301.648 18.792 304.48 21.288C305.488 22.2 306.64 23.208 306.832 23.448C307.984 24.648 308.32 26.232 307.744 27.672C307.312 28.68 306.352 29.784 304.816 29.88C304.768 29.88 304.72 29.88 304.624 29.88C302.8 29.88 301.504 28.776 300.832 26.664L297.328 27.768C298.432 31.416 301.168 33.528 304.624 33.528Z" fill="#378C3B"/>
</svg>
