<svg width="249" height="106" viewBox="0 0 249 106" fill="none" xmlns="http://www.w3.org/2000/svg">
<path d="M41 80C41 78.8954 41.8954 78 43 78H105.537V82H43C41.8954 82 41 81.1046 41 80Z" fill="#378C3B"/>
<rect x="105.537" y="78" width="65.6695" height="4" fill="white"/>
<path d="M171.207 78H233.744C234.849 78 235.744 78.8954 235.744 80C235.744 81.1046 234.849 82 233.744 82H171.207V78Z" fill="#AC1010"/>
<path d="M22.68 82.164C15.288 82.164 9.24 78.384 5.124 71.328C1.848 65.532 0 57.72 0 49.236C0 40.836 1.848 32.604 4.956 26.472C8.82 19.08 14.532 15.048 21 15.048C30.492 15.048 36.372 23.364 36.372 31.008C36.372 36.552 34.692 40.416 31.332 42.516C28.812 44.112 25.872 44.196 23.352 43.86C20.076 43.44 18.228 39.912 19.74 36.972L20.076 36.216C22.008 37.896 25.704 38.4 27.972 37.056C29.568 35.964 29.904 33.192 29.904 31.008C29.904 27.228 27.048 21.516 21 21.516C11.928 21.516 6.468 35.628 6.468 49.236C6.468 56.544 7.98 63.264 10.752 68.136C13.608 73.176 17.64 75.696 22.68 75.696C29.4 75.696 32.508 72.252 32.592 72.252C35.028 74.436 34.272 78.468 31.248 80.232C29.148 81.492 26.208 82.164 22.68 82.164ZM64.7653 72H58.2973L56.3653 64.524C51.4933 61.92 47.1253 61.668 43.9333 62.088L41.4133 72H34.9453L47.4613 23.616H52.2493L64.7653 72ZM45.6973 55.452C48.2173 55.368 51.1573 55.704 54.3493 56.712L49.8973 39.24L45.6973 55.452ZM84.2842 23.7C89.1562 23.7 93.1882 27.648 93.1882 32.604V46.38C93.1882 50.244 90.5842 52.092 87.8122 53.688L93.1882 72H86.4682L81.5962 56.04C80.0002 56.46 77.1442 57.468 75.1282 58.056V72H68.6602V23.7H84.2842ZM86.7202 44.616V33.864C86.7202 31.344 84.6202 29.328 82.1002 29.328H75.1282V50.748C84.3682 48.144 86.7202 46.716 86.7202 44.616ZM115.558 23.616C120.43 23.616 124.462 27.564 124.462 32.52V63.096C124.462 68.052 120.43 72 115.558 72H99.0938V23.616H115.558ZM117.994 60.996V33.78C117.994 31.26 115.894 29.244 113.374 29.244H105.562V65.616H113.374C115.894 65.616 117.994 63.516 117.994 60.996ZM160.168 72H153.7L151.768 64.524C146.896 61.92 142.528 61.668 139.336 62.088L136.816 72H130.348L142.864 23.616H147.652L160.168 72ZM141.1 55.452C143.62 55.368 146.56 55.704 149.752 56.712L145.3 39.24L141.1 55.452ZM151.096 13.62L144.208 20.256L141.184 17.484L148.324 10.764L151.096 13.62ZM181.655 23.7C186.527 23.7 190.559 27.648 190.559 32.604V46.38C190.559 50.496 186.527 55.284 172.499 57.72V72H166.031V23.7H181.655ZM184.091 44.28V33.864C184.091 31.344 181.991 29.328 179.471 29.328H172.499V50.748C181.991 49.068 184.091 46.8 184.091 44.28ZM202.933 72H196.465V23.616H202.933V72ZM222.544 72.924C214.984 72.924 208.852 66.792 208.852 59.316V36.216C208.852 28.656 214.984 22.524 222.544 22.524C230.02 22.524 236.152 28.656 236.152 36.216V59.316C236.152 66.792 230.02 72.924 222.544 72.924ZM222.544 28.992C218.512 28.992 215.32 32.184 215.32 36.216V59.316C215.32 63.264 218.512 66.54 222.544 66.54C226.492 66.54 229.768 63.264 229.768 59.316V36.216C229.768 32.184 226.492 28.992 222.544 28.992Z" fill="#378C3B"/>
</svg>
