<svg width="249" height="106" viewBox="0 0 249 106" fill="none" xmlns="http://www.w3.org/2000/svg">
<rect x="40.6744" y="86.2791" width="64.5373" height="4.93023" fill="#378C3B"/>
<rect x="105.212" y="86.2791" width="65.6695" height="4.93023" fill="white"/>
<rect x="170.881" y="86.2791" width="64.5373" height="4.93023" fill="#AC1010"/>
<path d="M22.68 82.164C26.208 82.164 29.148 81.492 31.248 80.232C34.272 78.468 35.028 74.436 32.592 72.252C32.508 72.252 29.4 75.696 22.68 75.696C17.64 75.696 13.608 73.176 10.752 68.136C7.98 63.264 6.468 56.544 6.468 49.236C6.468 35.628 11.928 21.516 21 21.516C27.048 21.516 29.904 27.228 29.904 31.008C29.904 33.192 29.568 35.964 27.972 37.056C25.704 38.4 22.008 37.896 20.076 36.216L19.74 36.972C18.228 39.912 20.076 43.44 23.352 43.86C25.872 44.196 28.812 44.112 31.332 42.516C34.692 40.416 36.372 36.552 36.372 31.008C36.372 23.364 30.492 15.048 21 15.048C14.532 15.048 8.82 19.08 4.956 26.472C1.848 32.604 0 40.836 0 49.236C0 57.72 1.848 65.532 5.124 71.328C9.24 78.384 15.288 82.164 22.68 82.164ZM64.7653 72L52.2493 23.616H47.4613L34.9453 72H41.4133L43.9333 62.088C47.1253 61.668 51.4933 61.92 56.3653 64.524L58.2973 72H64.7653ZM45.6973 55.452L49.8973 39.24L54.3493 56.712C51.1573 55.704 48.2173 55.368 45.6973 55.452ZM84.2842 23.7H68.6602V72H75.1282V58.056C77.1442 57.468 80.0002 56.46 81.5962 56.04L86.4682 72H93.1882L87.8122 53.688C90.5842 52.092 93.1882 50.244 93.1882 46.38V32.604C93.1882 27.648 89.1562 23.7 84.2842 23.7ZM86.7202 44.616C86.7202 46.716 84.3682 48.144 75.1282 50.748V29.328H82.1002C84.6202 29.328 86.7202 31.344 86.7202 33.864V44.616ZM115.558 23.616H99.0938V72H115.558C120.43 72 124.462 68.052 124.462 63.096V32.52C124.462 27.564 120.43 23.616 115.558 23.616ZM117.994 60.996C117.994 63.516 115.894 65.616 113.374 65.616H105.562V29.244H113.374C115.894 29.244 117.994 31.26 117.994 33.78V60.996ZM160.168 72L147.652 23.616H142.864L130.348 72H136.816L139.336 62.088C142.528 61.668 146.896 61.92 151.768 64.524L153.7 72H160.168ZM141.1 55.452L145.3 39.24L149.752 56.712C146.56 55.704 143.62 55.368 141.1 55.452ZM151.096 13.62L148.324 10.764L141.184 17.484L144.208 20.256L151.096 13.62ZM181.655 23.7H166.031V72H172.499V57.72C186.527 55.284 190.559 50.496 190.559 46.38V32.604C190.559 27.648 186.527 23.7 181.655 23.7ZM184.091 44.28C184.091 46.8 181.991 49.068 172.499 50.748V29.328H179.471C181.991 29.328 184.091 31.344 184.091 33.864V44.28ZM202.933 72V23.616H196.465V72H202.933ZM222.544 72.924C230.02 72.924 236.152 66.792 236.152 59.316V36.216C236.152 28.656 230.02 22.524 222.544 22.524C214.984 22.524 208.852 28.656 208.852 36.216V59.316C208.852 66.792 214.984 72.924 222.544 72.924ZM222.544 28.992C226.492 28.992 229.768 32.184 229.768 36.216V59.316C229.768 63.264 226.492 66.54 222.544 66.54C218.512 66.54 215.32 63.264 215.32 59.316V36.216C215.32 32.184 218.512 28.992 222.544 28.992Z" fill="#378C3B"/>
</svg>
