<svg width="468" height="103" viewBox="0 0 468 103" fill="none" xmlns="http://www.w3.org/2000/svg">
<path d="M60 85C60 83.8954 60.8954 83 62 83H195.092V87H62C60.8954 87 60 86.1046 60 85Z" fill="#378C3B"/>
<rect x="195.093" y="83" width="137.462" height="4" fill="white"/>
<path d="M333 83H459C460.105 83 461 83.8954 461 85C461 86.1046 460.105 87 459 87H333V83Z" fill="#AC1010"/>
<path d="M58.89 22.55C58.35 22.46 56.37 22.37 54.93 22.91V83.66H48V71.87C48 63.95 38.46 56.48 30.81 54.77C30.54 56.57 30.18 58.46 29.91 60.35C28.38 69.8 26.22 90.32 12.81 91.31C8.94 91.49 5.43 90.05 4.08 88.7C0.93 85.55 2.28 79.52 6.69 79.07C7.14 83.03 8.4 84.65 12.63 84.56H12.72C18.21 84.56 20.73 73.4 23.07 59.27C23.34 57.65 23.61 56.03 23.88 54.5C20.46 54.32 16.59 54.95 12.81 58.01C9.66 49.1 19.02 47.66 25.14 47.39C26.13 43.07 27.21 38.84 28.74 34.88C33.6 22.64 46.38 15.44 55.11 17.42C59.61 18.5 58.89 22.55 58.89 22.55ZM48 56.57V24.17C42.78 25.34 38.01 30.2 35.22 37.4C33.96 40.64 32.97 44.24 32.16 47.93C38.19 49.19 43.59 52.25 48 56.57ZM74.0726 77.99C67.5926 77.99 62.4626 74.03 60.3926 67.19L66.9626 65.12C68.2226 69.08 70.6526 71.15 74.0726 71.15C74.2526 71.15 74.3426 71.15 74.4326 71.15C77.3126 70.97 79.1126 68.9 79.9226 67.01C81.0026 64.31 80.3726 61.34 78.2126 59.09C77.8526 58.64 75.6926 56.75 73.8026 55.04C68.4926 50.36 64.7126 46.94 63.6326 45.5C60.6626 41.63 60.1226 36.41 62.1926 31.73C64.3526 27.14 68.4926 24.26 73.3526 23.99C73.6226 23.99 73.8026 23.99 74.0726 23.99C79.2926 23.99 84.1526 27.05 86.3126 31.64L80.1026 34.61C79.0226 32.45 76.5026 30.92 74.0726 30.92C73.9826 30.92 73.8926 30.92 73.7126 30.92C70.4726 31.1 69.0326 33.53 68.4926 34.61C67.5026 36.86 67.6826 39.47 69.0326 41.27C69.8426 42.35 75.4226 47.21 78.3926 49.91C81.1826 52.43 82.7126 53.69 83.2526 54.32C87.2126 58.55 88.3826 64.4 86.3126 69.53C84.3326 74.48 79.9226 77.72 74.7926 77.99C74.6126 77.99 74.3426 77.99 74.0726 77.99ZM145.929 25.16V77H138.999V41.63L130.719 61.43H126.579L118.299 41.63V77H111.369V25.16H118.299L128.649 49.82L138.999 25.16H145.929ZM184.188 77H177.258L175.188 68.99C169.968 66.2 165.288 65.93 161.868 66.38L159.168 77H152.238L165.648 25.16H170.778L184.188 77ZM163.758 59.27C166.458 59.18 169.608 59.54 173.028 60.62L168.258 41.9L163.758 59.27ZM197.401 77H190.471V25.16H197.401V77ZM217.422 77.99C210.942 77.99 205.812 74.03 203.742 67.19L210.312 65.12C211.572 69.08 214.002 71.15 217.422 71.15C217.602 71.15 217.692 71.15 217.782 71.15C220.662 70.97 222.462 68.9 223.272 67.01C224.352 64.31 223.722 61.34 221.562 59.09C221.202 58.64 219.042 56.75 217.152 55.04C211.842 50.36 208.062 46.94 206.982 45.5C204.012 41.63 203.472 36.41 205.542 31.73C207.702 27.14 211.842 24.26 216.702 23.99C216.972 23.99 217.152 23.99 217.422 23.99C222.642 23.99 227.502 27.05 229.662 31.64L223.452 34.61C222.372 32.45 219.852 30.92 217.422 30.92C217.332 30.92 217.242 30.92 217.062 30.92C213.822 31.1 212.382 33.53 211.842 34.61C210.852 36.86 211.032 39.47 212.382 41.27C213.192 42.35 218.772 47.21 221.742 49.91C224.532 52.43 226.062 53.69 226.602 54.32C230.562 58.55 231.732 64.4 229.662 69.53C227.682 74.48 223.272 77.72 218.142 77.99C217.962 77.99 217.692 77.99 217.422 77.99ZM271.459 25.25C276.679 25.25 280.999 29.48 280.999 34.79V49.55C280.999 53.96 276.679 59.09 261.649 61.7V77H254.719V25.25H271.459ZM274.069 47.3V36.14C274.069 33.44 271.819 31.28 269.119 31.28H261.649V54.23C271.819 52.43 274.069 50 274.069 47.3ZM313.696 32.18H294.256V44.87C298.216 42.44 304.336 42.89 308.206 45.5L304.966 52.61C301.276 49.91 297.136 50.72 294.256 52.43V70.16H313.696L312.166 77H287.326V76.91V25.34H312.166L313.696 32.18ZM337.661 25.16C342.881 25.16 347.201 29.39 347.201 34.7V67.46C347.201 72.77 342.881 77 337.661 77H320.021V25.16H337.661ZM340.271 65.21V36.05C340.271 33.35 338.021 31.19 335.321 31.19H326.951V70.16H335.321C338.021 70.16 340.271 67.91 340.271 65.21ZM360.438 77H353.508V25.16H360.438V77ZM384.419 25.16C389.639 25.16 393.959 29.39 393.959 34.7V67.46C393.959 72.77 389.639 77 384.419 77H366.779V25.16H384.419ZM387.029 65.21V36.05C387.029 33.35 384.779 31.19 382.079 31.19H373.709V70.16H382.079C384.779 70.16 387.029 67.91 387.029 65.21ZM429.403 77H422.473L420.403 68.99C415.183 66.2 410.503 65.93 407.083 66.38L404.383 77H397.453L410.863 25.16H415.993L429.403 77ZM408.973 59.27C411.673 59.18 414.823 59.54 418.243 60.62L413.473 41.9L408.973 59.27ZM447.168 77.99C440.688 77.99 435.558 74.03 433.488 67.19L440.058 65.12C441.318 69.08 443.748 71.15 447.168 71.15C447.348 71.15 447.438 71.15 447.528 71.15C450.408 70.97 452.208 68.9 453.018 67.01C454.098 64.31 453.468 61.34 451.308 59.09C450.948 58.64 448.788 56.75 446.898 55.04C441.588 50.36 437.808 46.94 436.728 45.5C433.758 41.63 433.218 36.41 435.288 31.73C437.448 27.14 441.588 24.26 446.448 23.99C446.718 23.99 446.898 23.99 447.168 23.99C452.388 23.99 457.248 27.05 459.408 31.64L453.198 34.61C452.118 32.45 449.598 30.92 447.168 30.92C447.078 30.92 446.988 30.92 446.808 30.92C443.568 31.1 442.128 33.53 441.588 34.61C440.598 36.86 440.778 39.47 442.128 41.27C442.938 42.35 448.518 47.21 451.488 49.91C454.278 52.43 455.808 53.69 456.348 54.32C460.308 58.55 461.478 64.4 459.408 69.53C457.428 74.48 453.018 77.72 447.888 77.99C447.708 77.99 447.438 77.99 447.168 77.99Z" fill="#378C3B"/>
<rect x="48" y="82" width="7" height="6" fill="#378C3B"/>
</svg>
