<svg width="28" height="28" viewBox="0 0 28 28" fill="none" xmlns="http://www.w3.org/2000/svg">
<path d="M14 1.16669L3.5 5.83335V12.8334C3.5 19.3084 7.98 25.3634 14 26.8334C20.02 25.3634 24.5 19.3084 24.5 12.8334V5.83335L14 1.16669ZM14 5.71669C14.6922 5.71669 15.3689 5.92196 15.9445 6.30654C16.5201 6.69113 16.9687 7.23775 17.2336 7.8773C17.4985 8.51684 17.5678 9.22057 17.4327 9.8995C17.2977 10.5784 16.9644 11.2021 16.4749 11.6916C15.9854 12.181 15.3617 12.5144 14.6828 12.6494C14.0039 12.7845 13.3001 12.7152 12.6606 12.4503C12.0211 12.1854 11.4744 11.7368 11.0899 11.1612C10.7053 10.5856 10.5 9.90892 10.5 9.21669C10.5 8.28843 10.8687 7.39819 11.5251 6.74181C12.1815 6.08544 13.0717 5.71669 14 5.71669ZM14 14.9334C16.3333 14.9334 21 16.205 21 18.5267C20.2338 19.6818 19.1936 20.6294 17.9722 21.2849C16.7508 21.9404 15.3862 22.2834 14 22.2834C12.6138 22.2834 11.2492 21.9404 10.0278 21.2849C8.80643 20.6294 7.76623 19.6818 7 18.5267C7 16.205 11.6667 14.9334 14 14.9334Z" fill="#378C3B"/>
</svg>
