<svg width="28" height="28" viewBox="0 0 28 28" fill="none" xmlns="http://www.w3.org/2000/svg">
<g clip-path="url(#clip0_1269_10)">
<path d="M28 14C28 21.7315 21.7315 28 14 28C6.2685 28 0 21.7315 0 14C0 6.2685 6.2685 0 14 0C21.7315 0 28 6.2685 28 14ZM24.5 14C24.5035 11.8191 23.8247 9.69168 22.5587 7.91583L7.917 22.5587C9.48782 23.6751 11.3356 24.3378 13.258 24.474C15.1803 24.6102 17.1031 24.2147 18.8156 23.3308C20.5282 22.4469 21.9644 21.1088 22.967 19.463C23.9697 17.8172 24.5 15.9272 24.5 14ZM20.0842 5.44133C18.0617 4.00357 15.5954 3.32856 13.1226 3.53602C10.6498 3.74347 8.33045 4.81999 6.57581 6.57464C4.82116 8.32929 3.74464 10.6487 3.53719 13.1214C3.32973 15.5942 4.00474 18.0605 5.4425 20.083L20.0842 5.44133Z" fill="#AC1010"/>
</g>
<defs>
<clipPath id="clip0_1269_10">
<rect width="28" height="28" fill="white"/>
</clipPath>
</defs>
</svg>
