<svg width="26" height="25" viewBox="0 0 26 25" fill="none" xmlns="http://www.w3.org/2000/svg">
<path d="M10 24C10.5523 24 11 23.5523 11 23C11 22.4477 10.5523 22 10 22C9.44772 22 9 22.4477 9 23C9 23.5523 9.44772 24 10 24Z" stroke="#378C3B" stroke-width="2" stroke-linecap="round" stroke-linejoin="round"/>
<path d="M21 24C21.5523 24 22 23.5523 22 23C22 22.4477 21.5523 22 21 22C20.4477 22 20 22.4477 20 23C20 23.5523 20.4477 24 21 24Z" stroke="#378C3B" stroke-width="2" stroke-linecap="round" stroke-linejoin="round"/>
<path d="M2 3H6L8.68 16.39C8.77144 16.8504 9.02191 17.264 9.38755 17.5583C9.75318 17.8526 10.2107 18.009 10.68 18H20.4C20.8693 18.009 21.3268 17.8526 21.6925 17.5583C22.0581 17.264 22.3086 16.8504 22.4 16.39L24 8H7" stroke="#378C3B" stroke-width="3" stroke-linecap="round" stroke-linejoin="round"/>
<path d="M9.5 17.5L7 8H24L21 18L9.5 17.5Z" fill="#378C3B"/>
</svg>
