<svg width="40" height="30" viewBox="0 0 40 30" fill="none" xmlns="http://www.w3.org/2000/svg">
<path fill-rule="evenodd" clip-rule="evenodd" d="M0.854167 0.0622639C0.7625 0.0937442 0.654708 0.13084 0.614583 0.144736C0.574458 0.158631 0.541667 0.186299 0.541667 0.206221C0.541667 0.226101 0.522083 0.242415 0.498125 0.242415C0.392417 0.242415 0.0833333 0.655718 0.0833333 0.79701C0.0833333 0.830171 0.0645833 0.857266 0.0416667 0.857266C0.0139583 0.857266 0 5.59846 0 14.9988C0 24.3992 0.0139583 29.1404 0.0416667 29.1404C0.0645833 29.1404 0.0833333 29.1675 0.0833333 29.2007C0.0833333 29.3419 0.392417 29.7552 0.498125 29.7552C0.522083 29.7552 0.541667 29.7716 0.541667 29.7914C0.541667 29.8114 0.5745 29.8388 0.614583 29.8525C1.06729 30.0066 0.1895 30 20 30C39.8105 30 38.9327 30.0066 39.3854 29.8525C39.4255 29.8388 39.4583 29.8114 39.4583 29.7914C39.4583 29.7716 39.4779 29.7552 39.5019 29.7552C39.6076 29.7552 39.9167 29.3419 39.9167 29.2007C39.9167 29.1675 39.9354 29.1404 39.9583 29.1404C39.986 29.1404 40 24.3992 40 14.9988C40 5.59846 39.986 0.857266 39.9583 0.857266C39.9354 0.857266 39.9167 0.830171 39.9167 0.79701C39.9167 0.655718 39.6076 0.242415 39.5019 0.242415C39.4779 0.242415 39.4583 0.226101 39.4583 0.206221C39.4583 0.186299 39.4255 0.158836 39.3854 0.145186C38.9326 -0.00897706 39.8148 -0.00245946 19.9792 0.0013936C3.87242 0.00450885 0.99575 0.0136906 0.854167 0.0622639ZM37.6667 14.9988V27.6648H20H2.33333V14.9988V2.33291H20H37.6667V14.9988ZM11.5208 6.19175C11.3833 6.21348 11.2133 6.24873 11.1429 6.27008C11.0725 6.29148 10.9647 6.30894 10.9033 6.30894C10.8419 6.30894 10.7917 6.32739 10.7917 6.34993C10.7917 6.37248 10.7354 6.39092 10.6667 6.39092C10.5979 6.39092 10.5417 6.40937 10.5417 6.43191C10.5417 6.45446 10.5075 6.4729 10.4657 6.4729C10.424 6.4729 10.2786 6.52553 10.1428 6.58985C10.007 6.65416 9.82083 6.74118 9.72917 6.7832C9.6375 6.82525 9.52617 6.89252 9.48171 6.93269C9.43729 6.9729 9.37638 7.00577 9.34629 7.00577C9.31625 7.00577 9.29167 7.02024 9.29167 7.03791C9.29167 7.05562 9.23533 7.1028 9.16646 7.14284C8.99413 7.24298 8.125 8.08455 8.125 8.15128C8.125 8.18104 8.09221 8.23539 8.05208 8.27208C8.01196 8.30881 7.95233 8.38476 7.91954 8.44088C7.65379 8.89586 7.58333 9.0297 7.58333 9.07971C7.58333 9.11135 7.56458 9.13726 7.54167 9.13726C7.51875 9.13726 7.5 9.17304 7.5 9.21682C7.5 9.2606 7.48125 9.30777 7.45833 9.32171C7.43542 9.33565 7.41667 9.39205 7.41667 9.4471C7.41667 9.50215 7.39996 9.54716 7.37954 9.54716C7.35917 9.54716 7.33217 9.60708 7.31958 9.68037C7.307 9.75366 7.25863 9.98882 7.21208 10.203C7.10746 10.6847 7.09629 11.5124 7.18763 12.0123C7.25333 12.3717 7.40754 12.9013 7.46583 12.9678C7.48462 12.9892 7.5 13.0399 7.5 13.0805C7.5 13.1211 7.51875 13.1543 7.54167 13.1543C7.56458 13.1543 7.58333 13.1813 7.58333 13.2143C7.58333 13.2473 7.63021 13.3569 7.6875 13.4579C7.79729 13.6514 7.82042 13.7691 7.74862 13.7691C7.72492 13.7691 7.64304 13.8291 7.56667 13.9023C7.49025 13.9756 7.37446 14.0725 7.30933 14.1175C7.16333 14.2187 6.76317 14.6127 6.62396 14.7925C6.56725 14.8657 6.45988 14.9876 6.38542 15.0634C6.31096 15.1391 6.25 15.2201 6.25 15.2434C6.25 15.2667 6.23125 15.2858 6.20833 15.2858C6.18542 15.2858 6.16667 15.3134 6.16667 15.3472C6.16667 15.3811 6.14792 15.4087 6.125 15.4087C6.10208 15.4087 6.08333 15.4348 6.08333 15.4668C6.08333 15.4987 6.06925 15.531 6.05208 15.5385C6.00713 15.5582 5.79167 15.891 5.79167 15.9407C5.79167 15.9637 5.77292 15.9826 5.75 15.9826C5.72708 15.9826 5.70833 16.0195 5.70833 16.0646C5.70833 16.1097 5.68958 16.1466 5.66667 16.1466C5.64375 16.1466 5.625 16.1819 5.625 16.2251C5.625 16.2683 5.61004 16.3098 5.59179 16.3174C5.52325 16.3456 5.16667 17.1715 5.16667 17.3021C5.16667 17.3428 5.14792 17.3763 5.125 17.3763C5.10208 17.3763 5.08333 17.4305 5.08333 17.4968C5.08333 17.5631 5.06458 17.6288 5.04167 17.6427C5.01875 17.6566 5 17.7407 5 17.8296C5 17.9184 4.98313 17.9911 4.96254 17.9911C4.94192 17.9911 4.91346 18.0787 4.89929 18.1858C4.88513 18.2929 4.85358 18.5096 4.82921 18.6674C4.76117 19.1081 4.73238 22.6292 4.79446 22.9202C4.82208 23.0498 4.86092 23.1559 4.88071 23.1559C4.90046 23.1559 4.91667 23.1927 4.91667 23.2378C4.91667 23.2829 4.93542 23.3198 4.95833 23.3198C4.98125 23.3198 5 23.3431 5 23.3716C5 23.4 5.04996 23.46 5.11104 23.5048C5.17213 23.5496 5.24579 23.6093 5.27475 23.6375C5.30371 23.6657 5.35683 23.6887 5.39288 23.6887C5.42887 23.6887 5.45833 23.704 5.45833 23.7227C5.45833 23.8432 5.94946 23.8527 12.2109 23.8527C18.505 23.8527 18.9167 23.8446 18.9167 23.7212C18.9167 23.7034 18.9542 23.6887 19 23.6887C19.0458 23.6887 19.0833 23.6703 19.0833 23.6477C19.0833 23.6252 19.1029 23.6067 19.1269 23.6067C19.1835 23.6067 19.375 23.4183 19.375 23.3626C19.375 23.3391 19.3938 23.3198 19.4167 23.3198C19.4396 23.3198 19.4583 23.2829 19.4583 23.2378C19.4583 23.1927 19.4745 23.1559 19.4943 23.1559C19.5141 23.1559 19.5529 23.0498 19.5805 22.9202C19.6419 22.6325 19.6148 19.1041 19.548 18.6879C19.5245 18.5414 19.4923 18.3247 19.4765 18.2063C19.4607 18.0879 19.4314 17.9911 19.4114 17.9911C19.3914 17.9911 19.375 17.9173 19.375 17.8271C19.375 17.737 19.3563 17.6632 19.3333 17.6632C19.3104 17.6632 19.2917 17.5986 19.2917 17.5197C19.2917 17.4408 19.2729 17.3763 19.25 17.3763C19.2271 17.3763 19.2083 17.3312 19.2083 17.2762C19.2083 17.2211 19.192 17.1662 19.172 17.1541C19.1521 17.142 19.1251 17.0794 19.112 17.0151C19.0837 16.876 18.8292 16.3369 18.7825 16.3174C18.7647 16.3098 18.75 16.2683 18.75 16.2251C18.75 16.1819 18.7313 16.1466 18.7083 16.1466C18.6854 16.1466 18.6667 16.1097 18.6667 16.0646C18.6667 16.0195 18.6479 15.9826 18.625 15.9826C18.6021 15.9826 18.5833 15.965 18.5833 15.9434C18.5833 15.9057 18.4213 15.6461 18.3339 15.5437C18.3107 15.5165 18.2917 15.4749 18.2917 15.4514C18.2917 15.428 18.2729 15.4087 18.25 15.4087C18.2271 15.4087 18.2083 15.3811 18.2083 15.3472C18.2083 15.3134 18.1896 15.2858 18.1667 15.2858C18.1438 15.2858 18.125 15.2667 18.125 15.2434C18.125 15.2201 18.0641 15.1391 17.9896 15.0634C17.9151 14.9876 17.8073 14.865 17.75 14.7909C17.6161 14.6177 17.2624 14.2698 17.0863 14.138C17.011 14.0817 16.8864 13.9756 16.8094 13.9023C16.7324 13.8291 16.6501 13.7691 16.6264 13.7691C16.5546 13.7691 16.5777 13.6514 16.6875 13.4579C16.7448 13.3569 16.7917 13.2473 16.7917 13.2143C16.7917 13.1813 16.8104 13.1543 16.8333 13.1543C16.8563 13.1543 16.875 13.1211 16.875 13.0805C16.875 13.0399 16.8904 12.9892 16.9092 12.9678C16.9675 12.9013 17.1217 12.3717 17.1874 12.0123C17.2787 11.5124 17.2675 10.6847 17.1629 10.203C17.1164 9.98882 17.068 9.75366 17.0554 9.68037C17.0428 9.60708 17.0158 9.54716 16.9955 9.54716C16.975 9.54716 16.9583 9.50104 16.9583 9.44468C16.9583 9.38832 16.9396 9.34221 16.9167 9.34221C16.8938 9.34221 16.875 9.29609 16.875 9.23973C16.875 9.18337 16.8563 9.13726 16.8333 9.13726C16.8104 9.13726 16.7917 9.11135 16.7917 9.07971C16.7917 9.0297 16.7212 8.89586 16.4555 8.44088C16.4227 8.38476 16.363 8.30881 16.3229 8.27208C16.2828 8.23539 16.25 8.18346 16.25 8.15665C16.25 8.09668 15.4998 7.35484 15.2708 7.18842C15.1792 7.12177 15.0794 7.04422 15.0491 7.01602C15.0188 6.98786 14.978 6.96478 14.9583 6.96478C14.9387 6.96478 14.8978 6.94175 14.8675 6.91355C14.8373 6.88539 14.6625 6.79189 14.4792 6.70581C14.2958 6.61973 14.1133 6.53213 14.0735 6.51111C14.0337 6.49012 13.9634 6.4729 13.9173 6.4729C13.8711 6.4729 13.8333 6.45446 13.8333 6.43191C13.8333 6.40937 13.7771 6.39092 13.7083 6.39092C13.6396 6.39092 13.5833 6.3744 13.5833 6.35424C13.5833 6.33407 13.513 6.3071 13.4271 6.29435C13.3412 6.2816 13.1583 6.25156 13.0208 6.22766C12.6643 6.16556 11.815 6.14527 11.5208 6.19175ZM13.0625 8.6066C13.2229 8.65935 13.3635 8.71272 13.375 8.72522C13.3865 8.73773 13.4521 8.7756 13.5208 8.80933C13.5896 8.84307 13.6552 8.88082 13.6667 8.89324C13.6781 8.90562 13.7504 8.95903 13.8273 9.01191C14.0223 9.14599 14.375 9.49309 14.375 9.55101C14.375 9.57741 14.4088 9.62885 14.45 9.66533C14.5327 9.73846 14.75 10.1715 14.75 10.2632C14.75 10.2951 14.7667 10.3313 14.7871 10.3437C14.8838 10.4025 14.9507 11.3984 14.8753 11.6581C14.8491 11.7483 14.8091 11.8867 14.7863 11.9656C14.7387 12.1306 14.617 12.4272 14.5844 12.4574C14.5723 12.4687 14.5358 12.5287 14.5033 12.5907C14.4708 12.6526 14.4287 12.7034 14.4096 12.7034C14.3906 12.7034 14.375 12.7236 14.375 12.7482C14.375 12.7914 13.9806 13.1912 13.8117 13.3193C13.675 13.4228 13.3268 13.6052 13.2656 13.6052C13.2341 13.6052 13.2083 13.6236 13.2083 13.6462C13.2083 13.6687 13.1521 13.6872 13.0833 13.6872C13.0146 13.6872 12.9583 13.7056 12.9583 13.7281C12.9583 13.7507 12.8871 13.7691 12.8 13.7691C12.7129 13.7691 12.6216 13.7889 12.597 13.8131C12.5207 13.8882 11.4463 13.8085 11.3931 13.7238C11.3805 13.7036 11.3243 13.6872 11.2684 13.6872C11.2124 13.6872 11.1667 13.6687 11.1667 13.6462C11.1667 13.6236 11.1409 13.6052 11.1094 13.6052C11.0479 13.6052 10.6983 13.4219 10.564 13.3193C10.3991 13.1931 10 12.7876 10 12.7461C10 12.7226 9.98442 12.7034 9.96538 12.7034C9.94633 12.7034 9.90417 12.6526 9.87171 12.5907C9.83921 12.5287 9.80271 12.4687 9.79058 12.4574C9.75804 12.4272 9.63629 12.1306 9.58871 11.9656C9.56592 11.8867 9.52588 11.7483 9.49971 11.6581C9.42433 11.3984 9.49117 10.4025 9.58792 10.3437C9.60833 10.3313 9.625 10.2951 9.625 10.2632C9.625 10.1715 9.84233 9.73846 9.92504 9.66533C9.96625 9.62885 10 9.57618 10 9.54822C10 9.48866 10.4273 9.08171 10.5938 8.98276C10.6568 8.9453 10.7083 8.90017 10.7083 8.88246C10.7083 8.86479 10.7458 8.85032 10.7917 8.85032C10.8375 8.85032 10.875 8.83622 10.875 8.81901C10.875 8.7747 11.1813 8.64665 11.5 8.55782C11.8895 8.4492 12.6567 8.47318 13.0625 8.6066ZM24.1793 8.5959C23.8855 8.7465 23.75 8.85574 23.75 8.94202C23.75 8.98178 23.7313 9.01429 23.7083 9.01429C23.6854 9.01429 23.6667 9.04195 23.6667 9.07577C23.6667 9.10959 23.6518 9.13726 23.6336 9.13726C23.6154 9.13726 23.5753 9.24932 23.5444 9.38631C23.4979 9.59237 23.4975 9.67369 23.5424 9.8577C23.5723 9.97997 23.6124 10.08 23.6317 10.08C23.6509 10.08 23.6667 10.1169 23.6667 10.162C23.6667 10.2071 23.6854 10.244 23.7083 10.244C23.7313 10.244 23.75 10.2633 23.75 10.2868C23.75 10.3425 23.9415 10.5309 23.9981 10.5309C24.0221 10.5309 24.0417 10.5449 24.0417 10.5619C24.0417 10.579 24.1026 10.617 24.1771 10.6466C24.2516 10.6761 24.345 10.7175 24.3848 10.7385C24.4868 10.7925 31.9453 10.7899 31.9792 10.7359C31.9933 10.7133 32.046 10.6945 32.0962 10.694C32.1464 10.6935 32.2344 10.657 32.2917 10.6129C32.349 10.5688 32.4124 10.5323 32.4327 10.5318C32.497 10.5302 32.663 10.3128 32.7708 10.0892C32.8966 9.82794 32.9101 9.47141 32.804 9.20981C32.7254 9.01584 32.6959 8.97243 32.5359 8.81503C32.3759 8.65759 32.3317 8.62857 32.1346 8.55122C31.9715 8.48724 31.642 8.48158 28.1763 8.48318L24.3958 8.4849L24.1793 8.5959ZM24.375 13.8921C24.375 13.9146 24.3422 13.9332 24.3021 13.9333C24.154 13.9335 23.75 14.2321 23.75 14.3412C23.75 14.3647 23.7358 14.384 23.7185 14.384C23.6774 14.384 23.6003 14.5604 23.535 14.8041C23.4931 14.9602 23.4931 15.0375 23.535 15.1935C23.6003 15.4372 23.6774 15.6137 23.7185 15.6137C23.7358 15.6137 23.75 15.6329 23.75 15.6565C23.75 15.7656 24.154 16.0641 24.3021 16.0644C24.3422 16.0645 24.375 16.083 24.375 16.1056C24.375 16.1327 26.0695 16.1466 29.375 16.1466C32.6805 16.1466 34.375 16.1327 34.375 16.1056C34.375 16.083 34.4078 16.0645 34.4479 16.0644C34.596 16.0641 35 15.7656 35 15.6565C35 15.6329 35.0142 15.6137 35.0315 15.6137C35.0726 15.6137 35.1497 15.4372 35.215 15.1935C35.2569 15.0375 35.2569 14.9602 35.215 14.8041C35.1497 14.5604 35.0726 14.384 35.0315 14.384C35.0142 14.384 35 14.3647 35 14.3412C35 14.2321 34.596 13.9335 34.4479 13.9333C34.4078 13.9332 34.375 13.9146 34.375 13.8921C34.375 13.865 32.6805 13.8511 29.375 13.8511C26.0695 13.8511 24.375 13.865 24.375 13.8921ZM9.82638 15.5829C9.83404 15.5999 9.87621 15.6137 9.92013 15.6137C9.96404 15.6137 10 15.6321 10 15.6547C10 15.6772 10.036 15.6957 10.0799 15.6957C10.1238 15.6957 10.166 15.7098 10.1736 15.7271C10.1873 15.7581 10.6977 15.9328 11.0208 16.0171C11.3436 16.1013 11.5685 16.1213 12.1875 16.1209C12.8286 16.1205 13.1253 16.0862 13.5625 15.9619C13.7 15.9227 13.855 15.8816 13.9069 15.8703C13.9588 15.859 14.0114 15.8336 14.0239 15.8138C14.0364 15.7939 14.083 15.7776 14.1275 15.7776C14.172 15.7776 14.2083 15.7592 14.2083 15.7367C14.2083 15.7141 14.2458 15.6957 14.2917 15.6957C14.3375 15.6957 14.375 15.6772 14.375 15.6547C14.375 15.6321 14.4125 15.6137 14.4583 15.6137C14.5042 15.6137 14.5417 15.5952 14.5417 15.5727C14.5417 15.5501 14.5792 15.5317 14.625 15.5317C14.6708 15.5317 14.7085 15.5179 14.7087 15.501C14.7088 15.484 14.7557 15.4489 14.8128 15.4228C14.87 15.3968 14.9167 15.3922 14.9167 15.4126C14.9167 15.433 14.95 15.4497 14.9908 15.4497C15.0316 15.4497 15.092 15.4866 15.125 15.5317C15.158 15.5768 15.199 15.6137 15.2161 15.6137C15.3093 15.6137 16.25 16.5474 16.25 16.6398C16.25 16.6616 16.2656 16.6794 16.2846 16.6794C16.3037 16.6794 16.3458 16.7301 16.3783 16.7921C16.4108 16.8542 16.4483 16.9141 16.4616 16.9254C16.5122 16.968 16.7917 17.5093 16.7917 17.5645C16.7917 17.5962 16.8104 17.6222 16.8333 17.6222C16.8563 17.6222 16.875 17.6554 16.875 17.696C16.875 17.7366 16.8904 17.7873 16.9092 17.8087C16.9675 17.8751 17.1217 18.4048 17.1874 18.7642C17.2338 19.0182 17.25 19.4189 17.25 20.3116V21.5163H12.1875H7.125V20.3116C7.125 19.4189 7.14121 19.0182 7.18763 18.7642C7.25333 18.4048 7.40754 17.8751 7.46583 17.8087C7.48462 17.7873 7.5 17.7366 7.5 17.696C7.5 17.6554 7.51875 17.6222 7.54167 17.6222C7.56458 17.6222 7.58333 17.596 7.58333 17.5641C7.58333 17.5059 7.86154 16.9639 7.91121 16.9254C7.92575 16.9141 7.96421 16.8542 7.99671 16.7921C8.02917 16.7301 8.07133 16.6794 8.09038 16.6794C8.10942 16.6794 8.125 16.6616 8.125 16.6398C8.125 16.5626 8.7735 15.8971 9.03779 15.7031C9.12008 15.6426 9.22379 15.5609 9.26825 15.5215C9.31267 15.482 9.37362 15.4497 9.40371 15.4497C9.43375 15.4497 9.45833 15.4322 9.45833 15.4108C9.45833 15.3695 9.80275 15.5306 9.82638 15.5829ZM24.375 19.2608C24.3406 19.2801 24.2443 19.325 24.161 19.3606C23.9935 19.432 23.75 19.6382 23.75 19.7086C23.75 19.7334 23.7313 19.7537 23.7083 19.7537C23.6854 19.7537 23.6667 19.7906 23.6667 19.8357C23.6667 19.8807 23.6509 19.9176 23.6317 19.9176C23.6124 19.9176 23.5723 20.0177 23.5424 20.14C23.4975 20.324 23.4979 20.4053 23.5444 20.6114C23.5753 20.7483 23.6154 20.8604 23.6336 20.8604C23.6518 20.8604 23.6667 20.8881 23.6667 20.9219C23.6667 20.9557 23.6854 20.9834 23.7083 20.9834C23.7313 20.9834 23.75 21.0135 23.75 21.0504C23.75 21.1414 23.9338 21.2901 24.199 21.4137L24.419 21.5163H29.375H34.331L34.551 21.4137C34.8162 21.2901 35 21.1414 35 21.0504C35 21.0135 35.0187 20.9834 35.0417 20.9834C35.0646 20.9834 35.0833 20.9557 35.0833 20.9219C35.0833 20.8881 35.0982 20.8604 35.1164 20.8604C35.1346 20.8604 35.1748 20.7483 35.2056 20.6114C35.2521 20.4053 35.2525 20.324 35.2076 20.14C35.1777 20.0177 35.1376 19.9176 35.1183 19.9176C35.0991 19.9176 35.0833 19.8807 35.0833 19.8357C35.0833 19.7906 35.0646 19.7537 35.0417 19.7537C35.0187 19.7537 35 19.7344 35 19.7108C35 19.6552 34.8085 19.4667 34.7519 19.4667C34.7279 19.4667 34.7083 19.4528 34.7083 19.4358C34.7083 19.4187 34.6474 19.3806 34.5729 19.3511C34.4984 19.3216 34.405 19.2802 34.3652 19.2591C34.2731 19.2104 24.4617 19.212 24.375 19.2608Z" fill="#378C3B"/>
</svg>
