<svg width="22" height="22" viewBox="0 0 22 22" fill="none" xmlns="http://www.w3.org/2000/svg">
<path d="M19.6213 7.44384L14.5053 2.38082L16.1906 0.693151C16.652 0.23105 17.219 0 17.8915 0C18.564 0 19.1306 0.23105 19.5912 0.693151L21.2765 2.38082C21.7379 2.84292 21.9787 3.40066 21.9987 4.05403C22.0188 4.7074 21.7981 5.26473 21.3367 5.72603L19.6213 7.44384ZM1.20377 22C0.8627 22 0.576606 21.8843 0.345484 21.6528C0.114361 21.4214 -0.000798342 21.1353 4.16527e-06 20.7945V17.389C4.16527e-06 17.2283 0.0300983 17.0724 0.0902863 16.9213C0.150474 16.7702 0.240756 16.6348 0.361133 16.5151L12.7599 4.09863L17.8759 9.22192L5.47712 21.6384C5.35674 21.7589 5.22152 21.8493 5.07145 21.9096C4.92138 21.9699 4.7657 22 4.60439 22H1.20377Z" fill="white"/>
</svg>
