<svg width="22" height="22" viewBox="0 0 22 22" fill="none" xmlns="http://www.w3.org/2000/svg">
<path fill-rule="evenodd" clip-rule="evenodd" d="M21.9048 10.7575C21.9048 16.6987 17.0012 21.515 10.9524 21.515C4.90355 21.515 0 16.6987 0 10.7575C0 4.81631 4.90355 0 10.9524 0C17.0012 0 21.9048 4.81631 21.9048 10.7575ZM9.45239 6.45453C9.45239 5.6261 10.124 4.95453 10.9524 4.95453H10.9624C11.7908 4.95453 12.4624 5.6261 12.4624 6.45453C12.4624 7.28296 11.7908 7.95453 10.9624 7.95453H10.9524C10.124 7.95453 9.45239 7.28296 9.45239 6.45453ZM10.9524 9.25751C11.7808 9.25751 12.4524 9.92908 12.4524 10.7575V15.0605C12.4524 15.8889 11.7808 16.5605 10.9524 16.5605C10.124 16.5605 9.45239 15.8889 9.45239 15.0605V10.7575C9.45239 9.92908 10.124 9.25751 10.9524 9.25751Z" fill="white"/>
</svg>
