<svg width="28" height="28" viewBox="0 0 28 28" fill="none" xmlns="http://www.w3.org/2000/svg">
<g clip-path="url(#clip0_1266_2)">
<path d="M13.9999 2.33331C20.4434 2.33331 25.6666 7.55648 25.6666 14C25.6666 20.4435 20.4434 25.6666 13.9999 25.6666C7.55642 25.6666 2.33325 20.4435 2.33325 14C2.33325 7.55648 7.55642 2.33331 13.9999 2.33331ZM13.9883 11.6666H12.8333C12.5359 11.667 12.2499 11.7808 12.0337 11.985C11.8174 12.1891 11.6873 12.4681 11.6699 12.7649C11.6525 13.0618 11.749 13.3541 11.9399 13.5821C12.1307 13.8101 12.4015 13.9567 12.6968 13.9918L12.8333 14V19.8216C12.8333 20.4283 13.2929 20.93 13.8833 20.993L14.0116 21H14.5833C14.8286 21 15.0677 20.9226 15.2666 20.7789C15.4655 20.6352 15.614 20.4324 15.691 20.1995C15.768 19.9665 15.7696 19.7152 15.6956 19.4813C15.6215 19.2473 15.4756 19.0427 15.2786 18.8965L15.1666 18.823V12.845C15.1666 12.2383 14.7069 11.7366 14.1166 11.6736L13.9883 11.6666ZM13.9999 8.16665C13.6905 8.16665 13.3938 8.28956 13.175 8.50836C12.9562 8.72715 12.8333 9.02389 12.8333 9.33331C12.8333 9.64273 12.9562 9.93948 13.175 10.1583C13.3938 10.3771 13.6905 10.5 13.9999 10.5C14.3093 10.5 14.6061 10.3771 14.8249 10.1583C15.0437 9.93948 15.1666 9.64273 15.1666 9.33331C15.1666 9.02389 15.0437 8.72715 14.8249 8.50836C14.6061 8.28956 14.3093 8.16665 13.9999 8.16665Z" fill="white"/>
</g>
<defs>
<clipPath id="clip0_1266_2">
<rect width="28" height="28" fill="white"/>
</clipPath>
</defs>
</svg>
