<svg width="38" height="38" viewBox="0 0 38 38" fill="none" xmlns="http://www.w3.org/2000/svg">
<path fill-rule="evenodd" clip-rule="evenodd" d="M7.28133 0.0400585C6.30727 0.162164 4.64706 0.617219 4.02087 0.933743C2.55592 1.67426 0.648815 4.85488 0.130803 7.42171C-0.0479602 8.30751 -0.0425364 10.2038 0.141205 11.0598C0.414625 12.3339 1.03368 14.1809 2.18992 17.1725C3.54313 20.6737 6.04916 24.2132 9.91701 28.0858C13.2609 31.434 16.1965 33.6496 19.2063 35.097C20.2585 35.603 20.6776 35.7718 23.1196 36.6727C26.1433 37.7882 27.0553 38.0016 28.7909 38C30.1719 37.9987 30.7864 37.8977 32.0141 37.4702C34.182 36.7155 36.4828 35.125 37.0603 33.982C37.4367 33.2369 37.8695 31.555 37.9687 30.451C38.0774 29.2423 38.0785 29.2433 34.8834 27.4886C32.3891 26.1188 31.5441 25.6301 30.7327 25.0886C29.3885 24.1915 28.9611 24.0671 28.2958 24.3799C27.8395 24.5945 26.9149 25.5169 25.963 26.7075C25.0626 27.8335 24.1797 28.7509 23.8185 28.9356C23.223 29.2402 22.7091 29.0576 20.6026 27.7936C17.9226 26.1854 16.3969 25.0338 14.6905 23.3314C12.9937 21.6386 11.8213 20.0863 10.2077 17.3958C8.94392 15.2888 8.76144 14.7747 9.06592 14.1791C9.24973 13.8195 10.164 12.9381 11.2935 12.0315C12.4814 11.078 13.4114 10.1451 13.623 9.6949C13.9329 9.03562 13.8069 8.60457 12.9119 7.26296C12.3688 6.44887 11.8727 5.59012 10.5134 3.11121C9.14876 0.62257 8.97119 0.351083 8.55689 0.119877C8.3337 -0.00468147 7.8697 -0.0337401 7.28133 0.0400585Z" fill="#378C3B"/>
</svg>
