<svg width="131" height="137" viewBox="0 0 131 137" fill="none" xmlns="http://www.w3.org/2000/svg">
<path d="M25.1854 103.183C30.7458 98.7417 36.9604 95.2384 43.8292 92.6737C50.6979 90.1089 57.8938 88.8288 65.4167 88.8333C72.9396 88.8333 80.1354 90.1157 87.0042 92.6805C93.8729 95.2453 100.088 98.7462 105.648 103.183C109.464 98.5139 112.436 93.2181 114.564 87.2958C116.692 81.3736 117.754 75.0528 117.75 68.3333C117.75 53.1861 112.654 40.2871 102.462 29.6362C92.2702 18.9853 79.9217 13.6621 65.4167 13.6667C50.916 13.6667 38.5675 18.9898 28.3712 29.6362C18.1749 40.2825 13.079 53.1816 13.0833 68.3333C13.0833 75.0528 14.1474 81.3736 16.2757 87.2958C18.4039 93.2181 21.3738 98.5139 25.1854 103.183ZM65.4167 75.1667C58.984 75.1667 53.5588 72.8616 49.141 68.2513C44.7232 63.6411 42.5165 57.974 42.5208 51.25C42.5208 44.5306 44.7276 38.8634 49.141 34.2487C53.5545 29.6339 58.9797 27.3288 65.4167 27.3333C71.8493 27.3333 77.2745 29.6384 81.6923 34.2487C86.1101 38.8589 88.3169 44.526 88.3125 51.25C88.3125 57.9694 86.1058 63.6366 81.6923 68.2513C77.2789 72.8661 71.8537 75.1712 65.4167 75.1667ZM65.4167 136.667C56.3674 136.667 47.8632 134.872 39.9042 131.282C31.9451 127.692 25.0219 122.825 19.1344 116.679C13.2469 110.529 8.58703 103.297 5.15483 94.9833C1.72264 86.6694 0.00436111 77.7861 0 68.3333C0 58.8806 1.71828 49.9972 5.15483 41.6833C8.59139 33.3694 13.2512 26.1375 19.1344 19.9875C25.0219 13.8375 31.9451 8.96989 39.9042 5.38467C47.8632 1.79945 56.3674 0.00455556 65.4167 0C74.466 0 82.9701 1.79489 90.9292 5.38467C98.8882 8.97445 105.811 13.8421 111.699 19.9875C117.586 26.1375 122.248 33.3694 125.685 41.6833C129.122 49.9972 130.838 58.8806 130.833 68.3333C130.833 77.7861 129.115 86.6694 125.679 94.9833C122.242 103.297 117.582 110.529 111.699 116.679C105.811 122.829 98.8882 127.699 90.9292 131.289C82.9701 134.879 74.466 136.671 65.4167 136.667Z" fill="#378C3B"/>
</svg>
