<svg width="28" height="27" viewBox="0 0 28 27" fill="none" xmlns="http://www.w3.org/2000/svg">
<path d="M5.79996 20.3C6.93329 19.4334 8.19996 18.7498 9.59996 18.2494C11 17.7489 12.4666 17.4991 14 17.5C15.5333 17.5 17 17.7502 18.4 18.2507C19.8 18.7511 21.0666 19.4342 22.2 20.3C22.9777 19.3889 23.5835 18.3556 24.0173 17.2C24.4511 16.0445 24.6675 14.8111 24.6666 13.5C24.6666 10.5445 23.628 8.02758 21.5506 5.94935C19.4733 3.87113 16.9564 2.83246 14 2.83335C11.0444 2.83335 8.52751 3.87202 6.44929 5.94935C4.37107 8.02669 3.3324 10.5436 3.33329 13.5C3.33329 14.8111 3.55018 16.0445 3.98396 17.2C4.41774 18.3556 5.02307 19.3889 5.79996 20.3ZM14 14.8334C12.6888 14.8334 11.5831 14.3836 10.6826 13.484C9.78218 12.5845 9.3324 11.4787 9.33329 10.1667C9.33329 8.85558 9.78307 7.7498 10.6826 6.84935C11.5822 5.94891 12.688 5.49913 14 5.50002C15.3111 5.50002 16.4168 5.9498 17.3173 6.84935C18.2177 7.74891 18.6675 8.85469 18.6666 10.1667C18.6666 11.4778 18.2168 12.5836 17.3173 13.484C16.4177 14.3845 15.312 14.8342 14 14.8334ZM14 26.8334C12.1555 26.8334 10.4222 26.4831 8.79996 25.7827C7.17774 25.0822 5.76663 24.1325 4.56663 22.9334C3.36663 21.7334 2.41685 20.3222 1.71729 18.7C1.01774 17.0778 0.667515 15.3445 0.666626 13.5C0.666626 11.6556 1.01685 9.92224 1.71729 8.30002C2.41774 6.6778 3.36752 5.26669 4.56663 4.06669C5.76663 2.86669 7.17774 1.91691 8.79996 1.21735C10.4222 0.517798 12.1555 0.167576 14 0.166687C15.8444 0.166687 17.5777 0.516909 19.2 1.21735C20.8222 1.9178 22.2333 2.86758 23.4333 4.06669C24.6333 5.26669 25.5835 6.6778 26.284 8.30002C26.9844 9.92224 27.3342 11.6556 27.3333 13.5C27.3333 15.3445 26.9831 17.0778 26.2826 18.7C25.5822 20.3222 24.6324 21.7334 23.4333 22.9334C22.2333 24.1334 20.8222 25.0836 19.2 25.784C17.5777 26.4845 15.8444 26.8342 14 26.8334Z" fill="black"/>
</svg>
