<svg width="175" height="23" viewBox="0 0 175 23" fill="none" xmlns="http://www.w3.org/2000/svg">
<rect x="3" y="19" width="57" height="2" fill="#378C3B"/>
<rect x="60" y="19" width="58" height="2" fill="white"/>
<rect x="118" y="19" width="57" height="2" fill="#AC1010"/>
<path d="M13.8184 4.9C13.8184 4.9 13.9784 4 12.9784 3.76C11.0384 3.32 8.19844 4.92 7.11844 7.64C6.77844 8.52 6.53844 9.46 6.31844 10.42C4.95844 10.48 2.87844 10.8 3.57844 12.78C4.41844 12.1 5.27844 11.96 6.03844 12C5.97844 12.34 5.91844 12.7 5.85844 13.06C5.33844 16.2 4.77844 18.68 3.55844 18.68H3.53844C2.59844 18.7 2.31844 18.34 2.21844 17.46C1.23844 17.56 0.938437 18.9 1.63844 19.6C1.93844 19.9 2.71844 20.22 3.57844 20.18C6.55844 19.96 7.03844 15.4 7.37844 13.3C7.43844 12.88 7.51844 12.46 7.57844 12.06C9.27844 12.44 11.3984 14.1 11.3984 15.86V18.48H12.9384V4.98C13.2584 4.86 13.6984 4.88 13.8184 4.9ZM11.3984 12.46C10.4184 11.5 9.21844 10.82 7.87844 10.54C8.05844 9.72 8.27844 8.92 8.55844 8.2C9.17844 6.6 10.2384 5.52 11.3984 5.26V12.46ZM17.1923 17.22C17.2523 17.22 17.3123 17.22 17.3523 17.22C18.4923 17.16 19.4723 16.44 19.9123 15.34C20.3723 14.2 20.1123 12.9 19.2323 11.96C19.1123 11.82 18.7723 11.54 18.1523 10.98C17.4923 10.38 16.2523 9.3 16.0723 9.06C15.7723 8.66 15.7323 8.08 15.9523 7.58C16.0723 7.34 16.3923 6.8 17.1123 6.76C17.1523 6.76 17.1723 6.76 17.1923 6.76C17.7323 6.76 18.2923 7.1 18.5323 7.58L19.9123 6.92C19.4323 5.9 18.3523 5.22 17.1923 5.22C17.1323 5.22 17.0923 5.22 17.0323 5.22C15.9523 5.28 15.0323 5.92 14.5523 6.94C14.0923 7.98 14.2123 9.14 14.8723 10C15.1123 10.32 15.9523 11.08 17.1323 12.12C17.5523 12.5 18.0323 12.92 18.1123 13.02C18.5923 13.52 18.7323 14.18 18.4923 14.78C18.3123 15.2 17.9123 15.66 17.2723 15.7C17.2523 15.7 17.2323 15.7 17.1923 15.7C16.4323 15.7 15.8923 15.24 15.6123 14.36L14.1523 14.82C14.6123 16.34 15.7523 17.22 17.1923 17.22ZM33.1605 5.48H31.6205L29.3205 10.96L27.0205 5.48H25.4805V17H27.0205V9.14L28.8605 13.54H29.7805L31.6205 9.14V17H33.1605V5.48ZM41.6625 17L38.6825 5.48H37.5425L34.5625 17H36.1025L36.7025 14.64C37.4625 14.54 38.5025 14.6 39.6625 15.22L40.1225 17H41.6625ZM37.1225 13.06L38.1225 9.2L39.1825 13.36C38.4225 13.12 37.7225 13.04 37.1225 13.06ZM44.5986 17V5.48H43.0586V17H44.5986ZM49.0478 17.22C49.1078 17.22 49.1678 17.22 49.2078 17.22C50.3478 17.16 51.3278 16.44 51.7678 15.34C52.2278 14.2 51.9678 12.9 51.0878 11.96C50.9678 11.82 50.6278 11.54 50.0078 10.98C49.3478 10.38 48.1078 9.3 47.9278 9.06C47.6278 8.66 47.5878 8.08 47.8078 7.58C47.9278 7.34 48.2478 6.8 48.9678 6.76C49.0078 6.76 49.0278 6.76 49.0478 6.76C49.5878 6.76 50.1478 7.1 50.3878 7.58L51.7678 6.92C51.2878 5.9 50.2078 5.22 49.0478 5.22C48.9878 5.22 48.9478 5.22 48.8878 5.22C47.8078 5.28 46.8878 5.92 46.4078 6.94C45.9478 7.98 46.0678 9.14 46.7278 10C46.9678 10.32 47.8078 11.08 48.9878 12.12C49.4078 12.5 49.8878 12.92 49.9678 13.02C50.4478 13.52 50.5878 14.18 50.3478 14.78C50.1678 15.2 49.7678 15.66 49.1278 15.7C49.1078 15.7 49.0878 15.7 49.0478 15.7C48.2878 15.7 47.7478 15.24 47.4678 14.36L46.0078 14.82C46.4678 16.34 47.6078 17.22 49.0478 17.22ZM61.0559 5.5H57.3359V17H58.8759V13.6C62.2159 13.02 63.1759 11.88 63.1759 10.9V7.62C63.1759 6.44 62.2159 5.5 61.0559 5.5ZM61.6359 10.4C61.6359 11 61.1359 11.54 58.8759 11.94V6.84H60.5359C61.1359 6.84 61.6359 7.32 61.6359 7.92V10.4ZM70.442 7.04L70.102 5.52H64.582V16.98V17H70.102L70.442 15.48H66.122V11.54C66.762 11.16 67.682 10.98 68.502 11.58L69.222 10C68.362 9.42 67.002 9.32 66.122 9.86V7.04H70.442ZM75.7677 5.48H71.8477V17H75.7677C76.9277 17 77.8877 16.06 77.8877 14.88V7.6C77.8877 6.42 76.9277 5.48 75.7677 5.48ZM76.3477 14.38C76.3477 14.98 75.8477 15.48 75.2477 15.48H73.3877V6.82H75.2477C75.8477 6.82 76.3477 7.3 76.3477 7.9V14.38ZM80.8291 17V5.48H79.2891V17H80.8291ZM86.1583 5.48H82.2383V17H86.1583C87.3183 17 88.2783 16.06 88.2783 14.88V7.6C88.2783 6.42 87.3183 5.48 86.1583 5.48ZM86.7383 14.38C86.7383 14.98 86.2383 15.48 85.6383 15.48H83.7783V6.82H85.6383C86.2383 6.82 86.7383 7.3 86.7383 7.9V14.38ZM96.1547 17L93.1747 5.48H92.0347L89.0547 17H90.5947L91.1947 14.64C91.9547 14.54 92.9947 14.6 94.1547 15.22L94.6147 17H96.1547ZM91.6147 13.06L92.6147 9.2L93.6747 13.36C92.9147 13.12 92.2147 13.04 91.6147 13.06ZM100.103 17.22C100.163 17.22 100.223 17.22 100.263 17.22C101.403 17.16 102.383 16.44 102.823 15.34C103.283 14.2 103.023 12.9 102.143 11.96C102.023 11.82 101.683 11.54 101.063 10.98C100.403 10.38 99.1625 9.3 98.9825 9.06C98.6825 8.66 98.6425 8.08 98.8625 7.58C98.9825 7.34 99.3025 6.8 100.023 6.76C100.063 6.76 100.083 6.76 100.103 6.76C100.643 6.76 101.203 7.1 101.443 7.58L102.823 6.92C102.342 5.9 101.263 5.22 100.103 5.22C100.043 5.22 100.002 5.22 99.9425 5.22C98.8625 5.28 97.9425 5.92 97.4625 6.94C97.0025 7.98 97.1225 9.14 97.7825 10C98.0225 10.32 98.8625 11.08 100.043 12.12C100.463 12.5 100.943 12.92 101.023 13.02C101.503 13.52 101.643 14.18 101.403 14.78C101.223 15.2 100.823 15.66 100.183 15.7C100.163 15.7 100.143 15.7 100.103 15.7C99.3425 15.7 98.8025 15.24 98.5225 14.36L97.0625 14.82C97.5225 16.34 98.6625 17.22 100.103 17.22ZM112.311 5.48H108.391V17H112.311C113.471 17 114.431 16.06 114.431 14.88V7.6C114.431 6.42 113.471 5.48 112.311 5.48ZM112.891 14.38C112.891 14.98 112.391 15.48 111.791 15.48H109.931V6.82H111.791C112.391 6.82 112.891 7.3 112.891 7.9V14.38ZM122.307 17L119.327 5.48H118.187L115.207 17H116.747L117.347 14.64C118.107 14.54 119.147 14.6 120.307 15.22L120.767 17H122.307ZM117.767 13.06L118.767 9.2L119.827 13.36C119.067 13.12 118.367 13.04 117.767 13.06ZM130.888 17.2C131.408 17.2 131.928 17.06 132.408 16.78C133.368 16.22 133.948 15.24 133.948 14.12V10.94C132.888 10.64 131.488 10.56 130.548 10.84L130.568 12.38C131.228 12.18 131.888 12.12 132.408 12.32V14.12C132.408 14.68 132.128 15.18 131.628 15.46C131.168 15.74 130.648 15.74 130.188 15.48C129.528 15.12 129.188 14.36 129.188 13.3C129.188 9.06 129.188 9.06 129.188 8.94C129.188 7.86 129.648 7.06 130.448 6.82C131.148 6.6 131.928 6.92 132.428 7.66L133.688 6.8C132.828 5.5 131.368 4.94 129.988 5.36C128.868 5.7 127.648 6.82 127.648 8.94C127.648 8.96 127.648 8.96 127.648 13.3C127.648 14.9 128.288 16.2 129.428 16.82C129.888 17.08 130.388 17.2 130.888 17.2ZM141.819 17L138.839 5.48H137.699L134.719 17H136.259L136.859 14.64C137.619 14.54 138.659 14.6 139.819 15.22L140.279 17H141.819ZM137.279 13.06L138.279 9.2L139.339 13.36C138.579 13.12 137.879 13.04 137.279 13.06ZM144.755 15.48V5.48H143.215V17H148.375L148.735 15.48H144.755ZM155.969 7.04L155.629 5.52H150.109V16.98V17H155.629L155.969 15.48H151.649V11.54C152.289 11.16 153.209 10.98 154.029 11.58L154.749 10C153.889 9.42 152.529 9.32 151.649 9.86V7.04H155.969ZM161.095 5.5H157.375V17H158.915V13.68C159.395 13.54 160.075 13.3 160.455 13.2L161.615 17H163.215L161.935 12.64C162.595 12.26 163.215 11.82 163.215 10.9V7.62C163.215 6.44 162.255 5.5 161.095 5.5ZM161.675 10.48C161.675 10.98 161.115 11.32 158.915 11.94V6.84H160.575C161.175 6.84 161.675 7.32 161.675 7.92V10.48ZM171.096 17L168.116 5.48H166.976L163.996 17H165.536L166.136 14.64C166.896 14.54 167.936 14.6 169.096 15.22L169.556 17H171.096ZM166.556 13.06L167.556 9.2L168.616 13.36C167.856 13.12 167.156 13.04 166.556 13.06ZM174.012 11.96V10.32H172.492V11.96H174.012ZM174.012 17.02V15.38H172.492V17.02H174.012Z" fill="white"/>
</svg>
